<?xml version="1.0" standalone="no"?>
<!DOCTYPE svg PUBLIC "-//W3C//DTD SVG 20010904//EN"
 "http://www.w3.org/TR/2001/REC-SVG-20010904/DTD/svg10.dtd">
<svg version="1.0" xmlns="http://www.w3.org/2000/svg"
 width="500.000000pt" height="500.000000pt" viewBox="0 0 500.000000 500.000000"
 preserveAspectRatio="xMidYMid meet">


<rect width="100%" height="100%" fill="white" />
<g transform="translate(0.000000,500.000000) scale(0.100000,-0.100000)"
fill="#FF4500" stroke="none">
<path d="M0 2500 l0 -2500 2500 0 2500 0 0 2500 0 2500 -2500 0 -2500 0 0
-2500z m3770 1688 c119 -35 229 -131 283 -245 30 -64 32 -75 32 -178 0 -99 -3
-116 -28 -169 -55 -119 -157 -209 -278 -247 -258 -80 -540 113 -557 382 l-4
76 -202 47 c-110 25 -205 46 -211 46 -8 0 -205 -551 -205 -573 0 -4 99 -7 220
-7 l220 0 0 -541 -1 -540 341 0 c285 1 340 -2 340 -13 0 -8 -3 -16 -7 -18 -9
-3 -125 -134 -384 -433 -688 -793 -822 -945 -828 -945 -5 0 -138 149 -297 332
-159 183 -352 405 -429 493 -129 148 -300 344 -438 504 -31 36 -54 68 -51 72
3 5 155 7 339 6 l335 -2 0 543 0 542 210 0 c116 0 210 2 210 4 0 2 27 82 61
177 33 96 96 277 140 403 44 125 81 232 84 236 3 4 40 -1 82 -11 43 -10 181
-44 306 -74 l228 -55 56 60 c112 121 284 172 433 128z"/>
</g>
</svg>
